<svg xmlns="http://www.w3.org/2000/svg" width="15.702" height="10.795" viewBox="0 0 15.702 10.795">
  <g id="email" transform="translate(0 -80)">
    <g id="Group_5862" data-name="Group 5862" transform="translate(10.408 81.99)">
      <g id="Group_5861" data-name="Group 5861" transform="translate(0 0)">
        <path id="Path_18925" data-name="Path 18925" d="M339.392,148.384l5.293,3.346V144.9Z" transform="translate(-339.392 -144.896)" fill="#fff"/>
      </g>
    </g>
    <g id="Group_5864" data-name="Group 5864" transform="translate(0 81.99)">
      <g id="Group_5863" data-name="Group 5863" transform="translate(0 0)">
        <path id="Path_18926" data-name="Path 18926" d="M0,144.9v6.834l5.293-3.346Z" transform="translate(0 -144.896)" fill="#fff"/>
      </g>
    </g>
    <g id="Group_5866" data-name="Group 5866" transform="translate(0.029 80)">
      <g id="Group_5865" data-name="Group 5865" transform="translate(0 0)">
        <path id="Path_18927" data-name="Path 18927" d="M15.651,80H1.912a.969.969,0,0,0-.952.835l7.821,5.153L16.6,80.835A.969.969,0,0,0,15.651,80Z" transform="translate(-0.96 -80)" fill="#fff"/>
      </g>
    </g>
    <g id="Group_5868" data-name="Group 5868" transform="translate(0.031 86.07)">
      <g id="Group_5867" data-name="Group 5867" transform="translate(0 0)">
        <path id="Path_18928" data-name="Path 18928" d="M10.5,277.921l-1.389.915a.493.493,0,0,1-.54,0l-1.389-.916-6.161,3.9a.968.968,0,0,0,.95.828H15.713a.968.968,0,0,0,.95-.828Z" transform="translate(-1.024 -277.92)" fill="#fff"/>
      </g>
    </g>
  </g>
</svg>
