<svg id="email" xmlns="http://www.w3.org/2000/svg" width="17.367" height="11.94" viewBox="0 0 17.367 11.94">
  <g id="Group_5862" data-name="Group 5862" transform="translate(11.512 2.201)">
    <g id="Group_5861" data-name="Group 5861" transform="translate(0 0)">
      <path id="Path_18925" data-name="Path 18925" d="M339.392,148.754l5.855,3.7V144.9Z" transform="translate(-339.392 -144.896)" fill="#1a3b69"/>
    </g>
  </g>
  <g id="Group_5864" data-name="Group 5864" transform="translate(0 2.201)">
    <g id="Group_5863" data-name="Group 5863" transform="translate(0 0)">
      <path id="Path_18926" data-name="Path 18926" d="M0,144.9v7.559l5.855-3.7Z" transform="translate(0 -144.896)" fill="#1a3b69"/>
    </g>
  </g>
  <g id="Group_5866" data-name="Group 5866" transform="translate(0.033 0)">
    <g id="Group_5865" data-name="Group 5865" transform="translate(0 0)">
      <path id="Path_18927" data-name="Path 18927" d="M17.209,80H2.013a1.072,1.072,0,0,0-1.053.924l8.651,5.7,8.651-5.7A1.072,1.072,0,0,0,17.209,80Z" transform="translate(-0.96 -80)" fill="#1a3b69"/>
    </g>
  </g>
  <g id="Group_5868" data-name="Group 5868" transform="translate(0.035 6.713)">
    <g id="Group_5867" data-name="Group 5867" transform="translate(0 0)">
      <path id="Path_18928" data-name="Path 18928" d="M11.507,277.921l-1.536,1.012a.545.545,0,0,1-.6,0L7.838,277.92l-6.814,4.31a1.07,1.07,0,0,0,1.051.916h15.2a1.07,1.07,0,0,0,1.051-.916Z" transform="translate(-1.024 -277.92)" fill="#1a3b69"/>
    </g>
  </g>
</svg>
