<svg id="linkedin" xmlns="http://www.w3.org/2000/svg" width="21.887" height="21.887" viewBox="0 0 21.887 21.887">
  <path id="Path_18934" data-name="Path 18934" d="M22.629,22.554h.005V14.526c0-3.927-.845-6.952-5.436-6.952a4.766,4.766,0,0,0-4.293,2.359h-.064V7.941H8.489V22.553h4.532V15.317c0-1.905.361-3.747,2.72-3.747,2.325,0,2.359,2.174,2.359,3.869v7.114Z" transform="translate(-0.747 -0.667)" fill="#fff"/>
  <path id="Path_18935" data-name="Path 18935" d="M.4,7.977H4.934V22.589H.4Z" transform="translate(-0.035 -0.702)" fill="#fff"/>
  <path id="Path_18936" data-name="Path 18936" d="M2.628,0A2.641,2.641,0,1,0,5.256,2.628,2.629,2.629,0,0,0,2.628,0Z" fill="#fff"/>
</svg>
