<svg xmlns="http://www.w3.org/2000/svg" width="407.718" height="62.019" viewBox="0 0 407.718 62.019">
  <g id="Group_32" data-name="Group 32" transform="translate(-156.141 -72.171)">
    <g id="Group_21" data-name="Group 21">
      <path id="Path_4" data-name="Path 4" d="M298.467,104.578v13.659H296.29v-30.2h7.7q5.229,0,7.812,2.017a7.06,7.06,0,0,1,2.583,5.922,8.119,8.119,0,0,1-.6,3.159,7.393,7.393,0,0,1-1.719,2.508,9.127,9.127,0,0,1-2.7,1.771,11.976,11.976,0,0,1-3.564.908,3.449,3.449,0,0,1,.919.853l10.393,13.062h-1.9a1.265,1.265,0,0,1-.587-.128,1.536,1.536,0,0,1-.479-.427l-9.669-12.251a2.152,2.152,0,0,0-.779-.662,3.271,3.271,0,0,0-1.29-.191Zm0-1.623h5.25a12.454,12.454,0,0,0,3.6-.48A7.742,7.742,0,0,0,310,101.1a5.947,5.947,0,0,0,1.675-2.156,6.767,6.767,0,0,0,.576-2.839,5.547,5.547,0,0,0-2.112-4.78,10.264,10.264,0,0,0-6.148-1.558h-5.527Z" fill="#0b9fcb"/>
      <path id="Path_5" data-name="Path 5" d="M329.564,96.66a8.758,8.758,0,0,1,3.318.618,7.475,7.475,0,0,1,2.647,1.8,8.317,8.317,0,0,1,1.75,2.914,11.586,11.586,0,0,1,.629,3.97,1.058,1.058,0,0,1-.139.64.525.525,0,0,1-.435.171H322.008v.4a14.406,14.406,0,0,0,.556,4.205,8.638,8.638,0,0,0,1.578,3.041,6.513,6.513,0,0,0,2.476,1.846,8.188,8.188,0,0,0,3.245.619,9.755,9.755,0,0,0,2.775-.351,10.422,10.422,0,0,0,1.974-.791,11.043,11.043,0,0,0,1.269-.789,1.438,1.438,0,0,1,.683-.352.491.491,0,0,1,.427.213l.554.683a5.792,5.792,0,0,1-1.354,1.195,9.742,9.742,0,0,1-1.878.95,13.807,13.807,0,0,1-2.22.63,12.252,12.252,0,0,1-2.379.234,10.107,10.107,0,0,1-3.971-.758,8.433,8.433,0,0,1-3.075-2.208,10.1,10.1,0,0,1-1.986-3.554,15.169,15.169,0,0,1-.7-4.813,13.125,13.125,0,0,1,.651-4.215,9.638,9.638,0,0,1,1.88-3.329,8.551,8.551,0,0,1,3.008-2.188A9.893,9.893,0,0,1,329.564,96.66Zm.031,1.514a7.968,7.968,0,0,0-2.94.513,6.4,6.4,0,0,0-2.248,1.473,7.477,7.477,0,0,0-1.535,2.3,10.462,10.462,0,0,0-.779,3.009h13.981a9.32,9.32,0,0,0-.47-3.063,6.562,6.562,0,0,0-1.32-2.294,5.723,5.723,0,0,0-2.047-1.441A6.757,6.757,0,0,0,329.6,98.174Z" fill="#0b9fcb"/>
      <path id="Path_6" data-name="Path 6" d="M357.352,99.84a2.229,2.229,0,0,1-.2.181.431.431,0,0,1-.268.075,1.121,1.121,0,0,1-.587-.289,8.059,8.059,0,0,0-.992-.629,8.385,8.385,0,0,0-1.547-.63,8.65,8.65,0,0,0-5.506.363,6.477,6.477,0,0,0-2.392,1.868,8.56,8.56,0,0,0-1.482,2.945,15.159,15.159,0,0,0,.011,7.854,8.454,8.454,0,0,0,1.482,2.913,6.331,6.331,0,0,0,2.326,1.8,7.263,7.263,0,0,0,3.032.619,7.854,7.854,0,0,0,2.572-.362,8.408,8.408,0,0,0,1.707-.79,7.8,7.8,0,0,0,1.068-.789,1.092,1.092,0,0,1,.629-.363.49.49,0,0,1,.426.213l.555.683a6.172,6.172,0,0,1-1.238,1.195,8.418,8.418,0,0,1-1.685.961,10.456,10.456,0,0,1-2.038.63,11.579,11.579,0,0,1-2.295.223,9.1,9.1,0,0,1-3.7-.736,8.03,8.03,0,0,1-2.882-2.134,9.979,9.979,0,0,1-1.877-3.426,15.921,15.921,0,0,1-.033-9.049,10.011,10.011,0,0,1,1.868-3.458,8.389,8.389,0,0,1,3.01-2.251,9.873,9.873,0,0,1,4.087-.8,9.624,9.624,0,0,1,3.681.661,9.075,9.075,0,0,1,2.808,1.792Z" fill="#0b9fcb"/>
      <path id="Path_7" data-name="Path 7" d="M362.794,118.237V97h1.067a.758.758,0,0,1,.523.15.746.746,0,0,1,.18.512l.172,4.482a10.108,10.108,0,0,1,2.731-4.044,6.242,6.242,0,0,1,4.2-1.462,7.312,7.312,0,0,1,1.772.2,6.774,6.774,0,0,1,1.535.587l-.277,1.408a.385.385,0,0,1-.426.342,1.134,1.134,0,0,1-.363-.086c-.157-.056-.352-.12-.587-.192a6.911,6.911,0,0,0-.864-.191,7.076,7.076,0,0,0-1.174-.086,5.467,5.467,0,0,0-3.96,1.494,10.669,10.669,0,0,0-2.507,4.311v13.809Z" fill="#0b9fcb"/>
      <path id="Path_8" data-name="Path 8" d="M381.232,97v13.575a7.263,7.263,0,0,0,1.371,4.685,5.049,5.049,0,0,0,4.177,1.7,7.526,7.526,0,0,0,3.875-1.056,11.291,11.291,0,0,0,3.234-2.934V97h2.028v21.237H394.8q-.591,0-.612-.555l-.192-3.159a12.032,12.032,0,0,1-3.409,2.945,8.493,8.493,0,0,1-4.308,1.111,7.987,7.987,0,0,1-3.1-.555,5.7,5.7,0,0,1-2.2-1.6,7.066,7.066,0,0,1-1.326-2.519,11.412,11.412,0,0,1-.448-3.329V97Z" fill="#0b9fcb"/>
      <path id="Path_9" data-name="Path 9" d="M406.352,89.68a1.609,1.609,0,0,1-.161.716,2.128,2.128,0,0,1-.415.586,1.916,1.916,0,0,1-.6.4,1.832,1.832,0,0,1-1.452,0,1.923,1.923,0,0,1-.6-.4,2,2,0,0,1-.4-.586,1.717,1.717,0,0,1-.15-.716,1.86,1.86,0,0,1,.15-.736,1.9,1.9,0,0,1,.4-.608,1.943,1.943,0,0,1,.6-.406,1.843,1.843,0,0,1,1.452,0,1.936,1.936,0,0,1,.6.406,2.017,2.017,0,0,1,.415.608A1.741,1.741,0,0,1,406.352,89.68ZM405.457,97v21.237h-2.03V97Z" fill="#0b9fcb"/>
      <path id="Path_10" data-name="Path 10" d="M418.752,118.579a4.531,4.531,0,0,1-3.351-1.2,5.03,5.03,0,0,1-1.194-3.692V99.178h-3.054a.564.564,0,0,1-.382-.128.447.447,0,0,1-.15-.363V97.9l3.628-.256.507-7.6a.589.589,0,0,1,.158-.341.481.481,0,0,1,.37-.15h.95v8.11h6.68v1.516h-6.68v14.406a4.5,4.5,0,0,0,.224,1.5,2.822,2.822,0,0,0,.618,1.036,2.44,2.44,0,0,0,.93.6,3.376,3.376,0,0,0,1.152.191,3.517,3.517,0,0,0,1.324-.224,5.489,5.489,0,0,0,.959-.49,5.961,5.961,0,0,0,.662-.492.727.727,0,0,1,.406-.223.462.462,0,0,1,.341.213l.554.9a5.893,5.893,0,0,1-2.058,1.441A6.426,6.426,0,0,1,418.752,118.579Z" fill="#0b9fcb"/>
      <path id="Path_11" data-name="Path 11" d="M436.189,96.66a8.758,8.758,0,0,1,3.318.618,7.475,7.475,0,0,1,2.647,1.8A8.317,8.317,0,0,1,443.9,102a11.586,11.586,0,0,1,.629,3.97,1.058,1.058,0,0,1-.139.64.525.525,0,0,1-.435.171H428.633v.4a14.406,14.406,0,0,0,.556,4.205,8.638,8.638,0,0,0,1.578,3.041,6.513,6.513,0,0,0,2.476,1.846,8.188,8.188,0,0,0,3.245.619,9.755,9.755,0,0,0,2.775-.351,10.422,10.422,0,0,0,1.974-.791,11.043,11.043,0,0,0,1.269-.789,1.438,1.438,0,0,1,.683-.352.491.491,0,0,1,.427.213l.554.683a5.792,5.792,0,0,1-1.354,1.195,9.742,9.742,0,0,1-1.878.95,13.807,13.807,0,0,1-2.22.63,12.252,12.252,0,0,1-2.379.234,10.107,10.107,0,0,1-3.971-.758,8.433,8.433,0,0,1-3.075-2.208,10.1,10.1,0,0,1-1.986-3.554,15.169,15.169,0,0,1-.7-4.813,13.125,13.125,0,0,1,.651-4.215,9.638,9.638,0,0,1,1.88-3.329,8.551,8.551,0,0,1,3.008-2.188A9.893,9.893,0,0,1,436.189,96.66Zm.031,1.514a7.977,7.977,0,0,0-2.941.513,6.4,6.4,0,0,0-2.247,1.473,7.477,7.477,0,0,0-1.535,2.3,10.462,10.462,0,0,0-.779,3.009H442.7a9.32,9.32,0,0,0-.47-3.063,6.562,6.562,0,0,0-1.32-2.294,5.723,5.723,0,0,0-2.047-1.441A6.757,6.757,0,0,0,436.22,98.174Z" fill="#0b9fcb"/>
      <path id="Path_12" data-name="Path 12" d="M450,118.237V97h1.067a.593.593,0,0,1,.7.662l.171,4.482a10.118,10.118,0,0,1,2.731-4.044,6.243,6.243,0,0,1,4.206-1.462,7.323,7.323,0,0,1,1.772.2,6.81,6.81,0,0,1,1.535.587l-.278,1.408a.385.385,0,0,1-.426.342,1.134,1.134,0,0,1-.363-.086c-.157-.056-.352-.12-.587-.192a6.911,6.911,0,0,0-.864-.191,7.075,7.075,0,0,0-1.174-.086,5.467,5.467,0,0,0-3.96,1.494,10.668,10.668,0,0,0-2.506,4.311v13.809Z" fill="#0b9fcb"/>
      <path id="Path_13" data-name="Path 13" d="M470.785,104.578v13.659h-2.177v-30.2h7.7q5.229,0,7.812,2.017a7.06,7.06,0,0,1,2.583,5.922,8.138,8.138,0,0,1-.6,3.159,7.408,7.408,0,0,1-1.719,2.508,9.14,9.14,0,0,1-2.7,1.771,11.984,11.984,0,0,1-3.564.908,3.449,3.449,0,0,1,.919.853l10.393,13.062h-1.9a1.259,1.259,0,0,1-.587-.128,1.525,1.525,0,0,1-.479-.427l-9.67-12.251a2.141,2.141,0,0,0-.778-.662,3.273,3.273,0,0,0-1.291-.191Zm0-1.623h5.25a12.454,12.454,0,0,0,3.6-.48,7.742,7.742,0,0,0,2.689-1.376A5.958,5.958,0,0,0,484,98.943a6.767,6.767,0,0,0,.576-2.839,5.548,5.548,0,0,0-2.113-4.78,10.259,10.259,0,0,0-6.147-1.558h-5.527Z" fill="#0b9fcb"/>
      <path id="Path_14" data-name="Path 14" d="M507.431,118.237a.729.729,0,0,1-.789-.6l-.3-2.71a22.441,22.441,0,0,1-1.74,1.537,10.444,10.444,0,0,1-1.8,1.152,8.9,8.9,0,0,1-2.028.715,10.84,10.84,0,0,1-2.39.246,7.013,7.013,0,0,1-2.112-.321,5.186,5.186,0,0,1-1.814-.982,4.813,4.813,0,0,1-1.271-1.7,5.861,5.861,0,0,1-.479-2.487,4.409,4.409,0,0,1,.767-2.5,6.307,6.307,0,0,1,2.4-2.007,15.856,15.856,0,0,1,4.206-1.366,36.487,36.487,0,0,1,6.178-.6v-2.22a7.1,7.1,0,0,0-1.271-4.534,4.531,4.531,0,0,0-3.766-1.591,7.073,7.073,0,0,0-2.614.428,9.242,9.242,0,0,0-1.825.938,11.448,11.448,0,0,0-1.218.939,1.313,1.313,0,0,1-.789.427.688.688,0,0,1-.64-.384l-.363-.619a12.344,12.344,0,0,1,3.5-2.518,9.761,9.761,0,0,1,4.162-.854,7.588,7.588,0,0,1,2.988.544,5.527,5.527,0,0,1,2.124,1.559,6.824,6.824,0,0,1,1.269,2.453,11.242,11.242,0,0,1,.428,3.212v13.831Zm-8.537-1.131a9.1,9.1,0,0,0,2.273-.267,8.458,8.458,0,0,0,1.92-.747,9.393,9.393,0,0,0,1.655-1.142q.768-.661,1.515-1.43v-5.528a37.99,37.99,0,0,0-5.219.459,15.062,15.062,0,0,0-3.606,1.014,5.278,5.278,0,0,0-2.091,1.526,3.246,3.246,0,0,0-.673,2.017,4.448,4.448,0,0,0,.352,1.846,3.666,3.666,0,0,0,.928,1.281,3.625,3.625,0,0,0,1.345.735A5.427,5.427,0,0,0,498.894,117.106Z" fill="#0b9fcb"/>
      <path id="Path_15" data-name="Path 15" d="M520.427,118.579a4.528,4.528,0,0,1-3.35-1.2,5.03,5.03,0,0,1-1.194-3.692V99.178h-3.054a.566.566,0,0,1-.383-.128.45.45,0,0,1-.149-.363V97.9l3.627-.256.507-7.6a.6.6,0,0,1,.159-.341.48.48,0,0,1,.37-.15h.95v8.11h6.679v1.516H517.91v14.406a4.476,4.476,0,0,0,.224,1.5,2.8,2.8,0,0,0,.618,1.036,2.425,2.425,0,0,0,.93.6,3.367,3.367,0,0,0,1.152.191,3.515,3.515,0,0,0,1.323-.224,5.454,5.454,0,0,0,.959-.49,5.875,5.875,0,0,0,.662-.492.725.725,0,0,1,.407-.223.461.461,0,0,1,.34.213l.555.9a5.9,5.9,0,0,1-2.059,1.441A6.426,6.426,0,0,1,520.427,118.579Z" fill="#0b9fcb"/>
      <path id="Path_16" data-name="Path 16" d="M537.865,96.66a8.753,8.753,0,0,1,3.317.618,7.466,7.466,0,0,1,2.647,1.8A8.319,8.319,0,0,1,545.58,102a11.586,11.586,0,0,1,.629,3.97,1.058,1.058,0,0,1-.139.64.526.526,0,0,1-.436.171H530.308v.4a14.406,14.406,0,0,0,.556,4.205,8.623,8.623,0,0,0,1.579,3.041,6.5,6.5,0,0,0,2.476,1.846,8.188,8.188,0,0,0,3.245.619,9.747,9.747,0,0,0,2.774-.351,10.423,10.423,0,0,0,1.974-.791,10.871,10.871,0,0,0,1.269-.789,1.444,1.444,0,0,1,.684-.352.493.493,0,0,1,.427.213l.554.683a5.779,5.779,0,0,1-1.355,1.195,9.706,9.706,0,0,1-1.877.95,13.821,13.821,0,0,1-2.221.63,12.237,12.237,0,0,1-2.379.234,10.11,10.11,0,0,1-3.971-.758,8.432,8.432,0,0,1-3.075-2.208,10.081,10.081,0,0,1-1.985-3.554,15.142,15.142,0,0,1-.7-4.813,13.125,13.125,0,0,1,.651-4.215,9.653,9.653,0,0,1,1.879-3.329,8.561,8.561,0,0,1,3.008-2.188A9.9,9.9,0,0,1,537.865,96.66Zm.031,1.514a7.977,7.977,0,0,0-2.941.513,6.407,6.407,0,0,0-2.248,1.473,7.5,7.5,0,0,0-1.535,2.3,10.43,10.43,0,0,0-.778,3.009h13.981a9.292,9.292,0,0,0-.471-3.063,6.562,6.562,0,0,0-1.32-2.294,5.706,5.706,0,0,0-2.047-1.441A6.752,6.752,0,0,0,537.9,98.174Z" fill="#0b9fcb"/>
      <path id="Path_17" data-name="Path 17" d="M551.674,118.237V97h1.066a.759.759,0,0,1,.524.15.751.751,0,0,1,.18.512l.171,4.482a10.129,10.129,0,0,1,2.731-4.044,6.247,6.247,0,0,1,4.206-1.462,7.311,7.311,0,0,1,1.772.2,6.774,6.774,0,0,1,1.535.587l-.277,1.408a.385.385,0,0,1-.427.342,1.129,1.129,0,0,1-.362-.086c-.157-.056-.352-.12-.587-.192a6.973,6.973,0,0,0-.865-.191,7.059,7.059,0,0,0-1.174-.086,5.465,5.465,0,0,0-3.959,1.494,10.67,10.67,0,0,0-2.507,4.311v13.809Z" fill="#0b9fcb"/>
    </g>
    <g id="Group_31" data-name="Group 31">
      <g id="Group_25" data-name="Group 25">
        <g id="Group_22" data-name="Group 22">
          <path id="Path_18" data-name="Path 18" d="M267.942,105.319H250.869a3.375,3.375,0,0,1,0-6.749h17.073a3.375,3.375,0,0,1,0,6.749Z" fill="#eebe1b"/>
        </g>
        <g id="Group_23" data-name="Group 23">
          <path id="Path_19" data-name="Path 19" d="M250.871,91.825a3.375,3.375,0,0,1-1.369-6.46l16.464-7.3a3.374,3.374,0,1,1,2.735,6.169l-16.464,7.3A3.367,3.367,0,0,1,250.871,91.825Z" fill="#2caf79"/>
        </g>
        <g id="Group_24" data-name="Group 24">
          <path id="Path_20" data-name="Path 20" d="M267.332,126.163a3.375,3.375,0,0,0,1.369-6.46l-16.464-7.3a3.374,3.374,0,0,0-2.735,6.169l16.464,7.3A3.367,3.367,0,0,0,267.332,126.163Z" fill="#ee3f58"/>
        </g>
      </g>
      <g id="Group_26" data-name="Group 26">
        <path id="Path_21" data-name="Path 21" d="M195.036,132.5V73.853a1.682,1.682,0,0,1,1.683-1.682h-9.568a31.01,31.01,0,1,0,0,62.019h11.891v0h-2.323A1.683,1.683,0,0,1,195.036,132.5Z" fill="#7ad0e8"/>
        <path id="Path_22" data-name="Path 22" d="M229.411,109.115c7.709-3.1,13.112-9.656,13.112-17.808a19.264,19.264,0,0,0-19.312-19.136H196.719a1.682,1.682,0,0,0-1.683,1.682V132.5a1.683,1.683,0,0,0,1.683,1.684h10.544a1.742,1.742,0,0,0,1.682-1.684V109.913h6.113l11.784,23.477a1.63,1.63,0,0,0,1.416.8h11.783a1.676,1.676,0,0,0,1.509-2.568Z" fill="#0b9fcb"/>
      </g>
      <g id="Group_27" data-name="Group 27">
        <path id="Path_23" data-name="Path 23" d="M217.345,82.546a16.526,16.526,0,0,0-13.174,6.541,1.551,1.551,0,0,0,0,1.85,16.537,16.537,0,0,0,26.348,0,1.548,1.548,0,0,0,0-1.85A16.525,16.525,0,0,0,217.345,82.546Z" fill="#fff"/>
      </g>
      <path id="Path_24" data-name="Path 24" d="M188.264,89.332c-.786-1.167-3.305-1.584-5.4-1.584a10.641,10.641,0,0,0-8.262,3.808L174,89.7a1.672,1.672,0,0,0-1.515-1.237h-2.077a1.713,1.713,0,0,0-1.669,1.669v25.912a1.712,1.712,0,0,0,1.669,1.669h3.435c.839,0,2.242,0,2.242-1.669v-18.1a7.248,7.248,0,0,1,6.134-3.284,6.2,6.2,0,0,1,2.309.474,1.522,1.522,0,0,0,2.12-.791l1.727-3.527A1.53,1.53,0,0,0,188.264,89.332Z" fill="#fff"/>
      <g id="Group_30" data-name="Group 30">
        <g id="Group_28" data-name="Group 28">
          <path id="Path_25" data-name="Path 25" d="M221.8,87.077a5.335,5.335,0,1,0,.884,2.935A5.33,5.33,0,0,0,221.8,87.077Z" fill="#1e254b"/>
        </g>
        <g id="Group_29" data-name="Group 29">
          <path id="Path_26" data-name="Path 26" d="M218.716,89.109a1.64,1.64,0,1,0,.272.9A1.639,1.639,0,0,0,218.716,89.109Z" fill="#fff"/>
        </g>
      </g>
    </g>
  </g>
</svg>
