<svg xmlns="http://www.w3.org/2000/svg" width="17.834" height="16.591" viewBox="0 0 17.834 16.591">
  <g id="Group_5860" data-name="Group 5860" transform="translate(0)">
    <g id="Group_88" data-name="Group 88" transform="translate(0 0)">
      <path id="Path_1673" data-name="Path 1673" d="M13.489,18.34a4.575,4.575,0,0,1-1.821-.234,17.868,17.868,0,0,1-9.516-6.979A9.938,9.938,0,0,1,.11,6.975,4.774,4.774,0,0,1,1.7,2.286a2.634,2.634,0,0,1,2.345-.345,1.511,1.511,0,0,1,.386.455c.5,1.255,1.034,2.414,1.545,3.586a.969.969,0,0,1-.083.759A7.255,7.255,0,0,1,4.814,8.2a.655.655,0,0,0-.11.952,11.794,11.794,0,0,0,6,5.158.7.7,0,0,0,.91-.207c.441-.524.9-1.1,1.31-1.655a.738.738,0,0,1,.979-.221c.855.372,1.71.772,2.524,1.159l.593.29c.869.428.869.483.772,1.421-.11,1.821-1.517,2.758-3.131,3.214a2.819,2.819,0,0,1-1.172.028" transform="translate(0 -1.798)" fill="#1a3b69" fill-rule="evenodd"/>
    </g>
    <path id="Path_1674" data-name="Path 1674" d="M0,52Z" transform="translate(0 -35.413)" fill="#1a3b69"/>
  </g>
</svg>
