<svg xmlns="http://www.w3.org/2000/svg" width="16.124" height="15" viewBox="0 0 16.124 15">
  <g id="Group_88" data-name="Group 88" transform="translate(0 0)">
    <path id="Path_1673" data-name="Path 1673" d="M12.2,16.754a4.136,4.136,0,0,1-1.646-.212,16.155,16.155,0,0,1-8.6-6.31A8.985,8.985,0,0,1,.1,6.479a4.316,4.316,0,0,1,1.434-4.24,2.381,2.381,0,0,1,2.12-.312A1.366,1.366,0,0,1,4,2.339c.449,1.135.935,2.182,1.4,3.242a.876.876,0,0,1-.075.686,6.559,6.559,0,0,1-.973,1.322.592.592,0,0,0-.1.86,10.663,10.663,0,0,0,5.424,4.664.63.63,0,0,0,.823-.187c.4-.474.811-1,1.185-1.5a.667.667,0,0,1,.885-.2c.773.337,1.546.7,2.282,1.047l.536.262c.786.387.786.436.7,1.284-.1,1.646-1.372,2.494-2.831,2.905a2.549,2.549,0,0,1-1.06.025" transform="translate(0 -1.798)" fill="#fff" fill-rule="evenodd"/>
  </g>
</svg>
