<svg id="rating" xmlns="http://www.w3.org/2000/svg" width="77.86" height="13.764" viewBox="0 0 77.86 13.764">
  <g id="Group_25" data-name="Group 25">
    <g id="Group_24" data-name="Group 24" transform="translate(0)">
      <path id="Path_20" data-name="Path 20" d="M14.375,215.91a.992.992,0,0,0-.8-.675l-3.785-.55L8.1,211.257a1.031,1.031,0,0,0-1.777,0l-1.693,3.428-3.776.55A.991.991,0,0,0,.3,216.926l2.738,2.661-.645,3.767A.991.991,0,0,0,3.833,224.4l3.374-1.779,3.384,1.779a.988.988,0,0,0,.461.114,1.006,1.006,0,0,0,.585-.188.994.994,0,0,0,.394-.97l-.645-3.767,2.738-2.661A.99.99,0,0,0,14.375,215.91Z" transform="translate(0 -210.749)" fill="#79d1e9"/>
    </g>
  </g>
  <g id="Group_27" data-name="Group 27" transform="translate(15.859)">
    <g id="Group_26" data-name="Group 26">
      <path id="Path_21" data-name="Path 21" d="M118.663,215.91a.992.992,0,0,0-.8-.675l-3.785-.55-1.693-3.428a1.031,1.031,0,0,0-1.777,0l-1.693,3.428-3.777.55a.991.991,0,0,0-.548,1.691l2.738,2.661-.645,3.767a.991.991,0,0,0,1.439,1.045l3.374-1.779,3.384,1.779a.988.988,0,0,0,.461.114,1.006,1.006,0,0,0,.585-.188,1,1,0,0,0,.394-.97l-.645-3.767,2.738-2.661A.989.989,0,0,0,118.663,215.91Z" transform="translate(-104.288 -210.749)" fill="#79d1e9"/>
    </g>
  </g>
  <g id="Group_33" data-name="Group 33" transform="translate(63.437 0)">
    <g id="Group_32" data-name="Group 32" transform="translate(0 0)">
      <path id="Path_24" data-name="Path 24" d="M431.53,215.911a.992.992,0,0,0-.8-.675l-3.785-.55-1.693-3.428a1.031,1.031,0,0,0-1.777,0l-1.693,3.428-3.777.55a.991.991,0,0,0-.548,1.691l2.738,2.661-.645,3.767a.991.991,0,0,0,1.439,1.045l3.374-1.779,3.384,1.779a.988.988,0,0,0,.461.114,1,1,0,0,0,.585-.188.994.994,0,0,0,.394-.97l-.645-3.767,2.738-2.661A.99.99,0,0,0,431.53,215.911Zm-4.748,2.62a.992.992,0,0,0-.286.878l.394,2.3-2.069-1.087a.988.988,0,0,0-.922,0l-2.058,1.084.395-2.3a.991.991,0,0,0-.286-.878l-1.669-1.623,2.3-.335a.991.991,0,0,0,.745-.542l1.034-2.094,1.034,2.094a.989.989,0,0,0,.746.542l2.31.336Z" transform="translate(-417.155 -210.75)" fill="#79d1e9"/>
    </g>
  </g>
  <g id="Group_35" data-name="Group 35" transform="translate(47.578 0)">
    <g id="Group_32-2" data-name="Group 32" transform="translate(0 0)">
      <path id="Path_24-2" data-name="Path 24" d="M431.53,215.911a.992.992,0,0,0-.8-.675l-3.785-.55-1.693-3.428a1.031,1.031,0,0,0-1.777,0l-1.693,3.428-3.777.55a.991.991,0,0,0-.548,1.691l2.738,2.661-.645,3.767a.991.991,0,0,0,1.439,1.045l3.374-1.779,3.384,1.779a.988.988,0,0,0,.461.114,1,1,0,0,0,.585-.188.994.994,0,0,0,.394-.97l-.645-3.767,2.738-2.661A.99.99,0,0,0,431.53,215.911Zm-4.748,2.62a.992.992,0,0,0-.286.878l.394,2.3-2.069-1.087a.988.988,0,0,0-.922,0l-2.058,1.084.395-2.3a.991.991,0,0,0-.286-.878l-1.669-1.623,2.3-.335a.991.991,0,0,0,.745-.542l1.034-2.094,1.034,2.094a.989.989,0,0,0,.746.542l2.31.336Z" transform="translate(-417.155 -210.75)" fill="#79d1e9"/>
    </g>
  </g>
  <g id="Group_36" data-name="Group 36" transform="translate(31.718 0)">
    <g id="Group_32-3" data-name="Group 32" transform="translate(0 0)">
      <path id="Path_24-3" data-name="Path 24" d="M431.53,215.911a.992.992,0,0,0-.8-.675l-3.785-.55-1.693-3.428a1.031,1.031,0,0,0-1.777,0l-1.693,3.428-3.777.55a.991.991,0,0,0-.548,1.691l2.738,2.661-.645,3.767a.991.991,0,0,0,1.439,1.045l3.374-1.779,3.384,1.779a.988.988,0,0,0,.461.114,1,1,0,0,0,.585-.188.994.994,0,0,0,.394-.97l-.645-3.767,2.738-2.661A.99.99,0,0,0,431.53,215.911Zm-4.748,2.62a.992.992,0,0,0-.286.878l.394,2.3-2.069-1.087a.988.988,0,0,0-.922,0l-2.058,1.084.395-2.3a.991.991,0,0,0-.286-.878l-1.669-1.623,2.3-.335a.991.991,0,0,0,.745-.542l1.034-2.094,1.034,2.094a.989.989,0,0,0,.746.542l2.31.336Z" transform="translate(-417.155 -210.75)" fill="#79d1e9"/>
    </g>
  </g>
</svg>
